<svg xmlns="http://www.w3.org/2000/svg" width="1280" height="720" viewBox="0 0 1280 720"><title>BHSM scientific workflow diagram</title><desc>Deterministic claim-safe repository visual. Animated flow markers indicate computational direction.</desc><rect x="0" y="0" width="1280" height="720" rx="0" fill="#07111d"/><rect x="0" y="0" width="1280" height="92" rx="0" fill="#0b1928"/><path d="M 0 92 L 0 720" fill="none" stroke="#173149" stroke-width="1" stroke-linecap="round" stroke-linejoin="round"/><path d="M 40 92 L 40 720" fill="none" stroke="#173149" stroke-width="1" stroke-linecap="round" stroke-linejoin="round"/><path d="M 80 92 L 80 720" fill="none" stroke="#173149" stroke-width="1" stroke-linecap="round" stroke-linejoin="round"/><path d="M 120 92 L 120 720" fill="none" stroke="#173149" stroke-width="1" stroke-linecap="round" stroke-linejoin="round"/><path d="M 160 92 L 160 720" fill="none" stroke="#173149" stroke-width="1" stroke-linecap="round" stroke-linejoin="round"/><path d="M 200 92 L 200 720" fill="none" stroke="#173149" stroke-width="1" stroke-linecap="round" stroke-linejoin="round"/><path d="M 240 92 L 240 720" fill="none" stroke="#173149" stroke-width="1" stroke-linecap="round" stroke-linejoin="round"/><path d="M 280 92 L 280 720" fill="none" stroke="#173149" stroke-width="1" stroke-linecap="round" stroke-linejoin="round"/><path d="M 320 92 L 320 720" fill="none" stroke="#173149" stroke-width="1" stroke-linecap="round" stroke-linejoin="round"/><path d="M 360 92 L 360 720" fill="none" stroke="#173149" stroke-width="1" stroke-linecap="round" stroke-linejoin="round"/><path d="M 400 92 L 400 720" fill="none" stroke="#173149" stroke-width="1" stroke-linecap="round" stroke-linejoin="round"/><path d="M 440 92 L 440 720" fill="none" stroke="#173149" stroke-width="1" stroke-linecap="round" stroke-linejoin="round"/><path d="M 480 92 L 480 720" fill="none" stroke="#173149" stroke-width="1" stroke-linecap="round" stroke-linejoin="round"/><path d="M 520 92 L 520 720" fill="none" stroke="#173149" stroke-width="1" stroke-linecap="round" stroke-linejoin="round"/><path d="M 560 92 L 560 720" fill="none" stroke="#173149" stroke-width="1" stroke-linecap="round" stroke-linejoin="round"/><path d="M 600 92 L 600 720" fill="none" stroke="#173149" stroke-width="1" stroke-linecap="round" stroke-linejoin="round"/><path d="M 640 92 L 640 720" fill="none" stroke="#173149" stroke-width="1" stroke-linecap="round" stroke-linejoin="round"/><path d="M 680 92 L 680 720" fill="none" stroke="#173149" stroke-width="1" stroke-linecap="round" stroke-linejoin="round"/><path d="M 720 92 L 720 720" fill="none" stroke="#173149" stroke-width="1" stroke-linecap="round" stroke-linejoin="round"/><path d="M 760 92 L 760 720" fill="none" stroke="#173149" stroke-width="1" stroke-linecap="round" stroke-linejoin="round"/><path d="M 800 92 L 800 720" fill="none" stroke="#173149" stroke-width="1" stroke-linecap="round" stroke-linejoin="round"/><path d="M 840 92 L 840 720" fill="none" stroke="#173149" stroke-width="1" stroke-linecap="round" stroke-linejoin="round"/><path d="M 880 92 L 880 720" fill="none" stroke="#173149" stroke-width="1" stroke-linecap="round" stroke-linejoin="round"/><path d="M 920 92 L 920 720" fill="none" stroke="#173149" stroke-width="1" stroke-linecap="round" stroke-linejoin="round"/><path d="M 960 92 L 960 720" fill="none" stroke="#173149" stroke-width="1" stroke-linecap="round" stroke-linejoin="round"/><path d="M 1000 92 L 1000 720" fill="none" stroke="#173149" stroke-width="1" stroke-linecap="round" stroke-linejoin="round"/><path d="M 1040 92 L 1040 720" fill="none" stroke="#173149" stroke-width="1" stroke-linecap="round" stroke-linejoin="round"/><path d="M 1080 92 L 1080 720" fill="none" stroke="#173149" stroke-width="1" stroke-linecap="round" stroke-linejoin="round"/><path d="M 1120 92 L 1120 720" fill="none" stroke="#173149" stroke-width="1" stroke-linecap="round" stroke-linejoin="round"/><path d="M 1160 92 L 1160 720" fill="none" stroke="#173149" stroke-width="1" stroke-linecap="round" stroke-linejoin="round"/><path d="M 1200 92 L 1200 720" fill="none" stroke="#173149" stroke-width="1" stroke-linecap="round" stroke-linejoin="round"/><path d="M 1240 92 L 1240 720" fill="none" stroke="#173149" stroke-width="1" stroke-linecap="round" stroke-linejoin="round"/><path d="M 1280 92 L 1280 720" fill="none" stroke="#173149" stroke-width="1" stroke-linecap="round" stroke-linejoin="round"/><path d="M 0 92 L 1280 92" fill="none" stroke="#173149" stroke-width="1" stroke-linecap="round" stroke-linejoin="round"/><path d="M 0 132 L 1280 132" fill="none" stroke="#173149" stroke-width="1" stroke-linecap="round" stroke-linejoin="round"/><path d="M 0 172 L 1280 172" fill="none" stroke="#173149" stroke-width="1" stroke-linecap="round" stroke-linejoin="round"/><path d="M 0 212 L 1280 212" fill="none" stroke="#173149" stroke-width="1" stroke-linecap="round" stroke-linejoin="round"/><path d="M 0 252 L 1280 252" fill="none" stroke="#173149" stroke-width="1" stroke-linecap="round" stroke-linejoin="round"/><path d="M 0 292 L 1280 292" fill="none" stroke="#173149" stroke-width="1" stroke-linecap="round" stroke-linejoin="round"/><path d="M 0 332 L 1280 332" fill="none" stroke="#173149" stroke-width="1" stroke-linecap="round" stroke-linejoin="round"/><path d="M 0 372 L 1280 372" fill="none" stroke="#173149" stroke-width="1" stroke-linecap="round" stroke-linejoin="round"/><path d="M 0 412 L 1280 412" fill="none" stroke="#173149" stroke-width="1" stroke-linecap="round" stroke-linejoin="round"/><path d="M 0 452 L 1280 452" fill="none" stroke="#173149" stroke-width="1" stroke-linecap="round" stroke-linejoin="round"/><path d="M 0 492 L 1280 492" fill="none" stroke="#173149" stroke-width="1" stroke-linecap="round" stroke-linejoin="round"/><path d="M 0 532 L 1280 532" fill="none" stroke="#173149" stroke-width="1" stroke-linecap="round" stroke-linejoin="round"/><path d="M 0 572 L 1280 572" fill="none" stroke="#173149" stroke-width="1" stroke-linecap="round" stroke-linejoin="round"/><path d="M 0 612 L 1280 612" fill="none" stroke="#173149" stroke-width="1" stroke-linecap="round" stroke-linejoin="round"/><path d="M 0 652 L 1280 652" fill="none" stroke="#173149" stroke-width="1" stroke-linecap="round" stroke-linejoin="round"/><path d="M 0 692 L 1280 692" fill="none" stroke="#173149" stroke-width="1" stroke-linecap="round" stroke-linejoin="round"/><path d="M 30 82 L 1250 82" fill="none" stroke="#1e8fa9" stroke-width="2" stroke-linecap="round" stroke-linejoin="round"/><text x="40" y="42" fill="#f1f6fa" font-family="Segoe UI,Arial,sans-serif" font-size="34" font-weight="700" text-anchor="start" dominant-baseline="central">BHSM IDENTIFICATION BRIDGE</text><text x="1240" y="44" fill="#9fb3c5" font-family="Segoe UI,Arial,sans-serif" font-size="17" font-weight="400" text-anchor="end" dominant-baseline="central">FROZEN STATE → AE2 SELECTED STOP / EVENT CHILD → LOCAL ENCLOSURE</text><rect x="25" y="180" width="210" height="170" rx="12" fill="#102338" stroke="#e2b85b" stroke-width="2"/><rect x="25" y="180" width="7" height="170" rx="4" fill="#e2b85b"/><text x="130.0" y="209" fill="#f1f6fa" font-family="Segoe UI,Arial,sans-serif" font-size="17" font-weight="700" text-anchor="middle" dominant-baseline="central">BHSM STATE</text><text x="130.0" y="238" fill="#9fb3c5" font-family="Segoe UI,Arial,sans-serif" font-size="15" font-weight="400" text-anchor="middle" dominant-baseline="central">family / mode</text><text x="130.0" y="262" fill="#9fb3c5" font-family="Segoe UI,Arial,sans-serif" font-size="15" font-weight="400" text-anchor="middle" dominant-baseline="central">representation</text><text x="130.0" y="286" fill="#9fb3c5" font-family="Segoe UI,Arial,sans-serif" font-size="15" font-weight="400" text-anchor="middle" dominant-baseline="central">projector + current</text><rect x="270" y="180" width="200" height="170" rx="12" fill="#102338" stroke="#43d7e8" stroke-width="2"/><rect x="270" y="180" width="7" height="170" rx="4" fill="#43d7e8"/><text x="370.0" y="209" fill="#f1f6fa" font-family="Segoe UI,Arial,sans-serif" font-size="17" font-weight="700" text-anchor="middle" dominant-baseline="central">SELECTED STOP</text><text x="370.0" y="238" fill="#9fb3c5" font-family="Segoe UI,Arial,sans-serif" font-size="15" font-weight="400" text-anchor="middle" dominant-baseline="central">λ₂₄ = 0</text><text x="370.0" y="262" fill="#9fb3c5" font-family="Segoe UI,Arial,sans-serif" font-size="15" font-weight="400" text-anchor="middle" dominant-baseline="central">Euler–Dirac Hessian</text><path d="M 235 265 L 270 265" fill="none" stroke="#43d7e8" stroke-width="3" stroke-linecap="round" stroke-linejoin="round"/><circle r="5" fill="#f1f6fa" stroke="#43d7e8" stroke-width="2"><animateMotion dur="2.8s" repeatCount="indefinite" begin="-0.36s" path="M 235 265 L 270 265"/></circle><polygon points="270,265 261.22417438109625,269.79425538604204 261.22417438109625,260.20574461395796" fill="#43d7e8"/><rect x="505" y="180" width="200" height="170" rx="12" fill="#102338" stroke="#43d7e8" stroke-width="2"><animate attributeName="stroke" values="#43d7e8;#f1f6fa;#43d7e8" dur="2.8s" repeatCount="indefinite"/></rect><rect x="505" y="180" width="7" height="170" rx="4" fill="#43d7e8"/><text x="605.0" y="209" fill="#f1f6fa" font-family="Segoe UI,Arial,sans-serif" font-size="17" font-weight="700" text-anchor="middle" dominant-baseline="central">EVENT CHILD</text><text x="605.0" y="238" fill="#9fb3c5" font-family="Segoe UI,Arial,sans-serif" font-size="15" font-weight="400" text-anchor="middle" dominant-baseline="central">geometric child</text><text x="605.0" y="262" fill="#9fb3c5" font-family="Segoe UI,Arial,sans-serif" font-size="15" font-weight="400" text-anchor="middle" dominant-baseline="central">forward-carried state</text><path d="M 470 265 L 505 265" fill="none" stroke="#43d7e8" stroke-width="3" stroke-linecap="round" stroke-linejoin="round"/><circle r="5" fill="#f1f6fa" stroke="#43d7e8" stroke-width="2"><animateMotion dur="2.8s" repeatCount="indefinite" begin="-0.73s" path="M 470 265 L 505 265"/></circle><polygon points="505,265 496.22417438109625,269.79425538604204 496.22417438109625,260.20574461395796" fill="#43d7e8"/><rect x="740" y="180" width="230" height="170" rx="12" fill="#102338" stroke="#e07a78" stroke-width="2"><animate attributeName="stroke" values="#e07a78;#f1f6fa;#e07a78" dur="2.8s" repeatCount="indefinite"/></rect><rect x="740" y="180" width="7" height="170" rx="4" fill="#e07a78"/><text x="855.0" y="209" fill="#f1f6fa" font-family="Segoe UI,Arial,sans-serif" font-size="17" font-weight="700" text-anchor="middle" dominant-baseline="central">LOCAL ENCLOSURE</text><text x="855.0" y="238" fill="#9fb3c5" font-family="Segoe UI,Arial,sans-serif" font-size="15" font-weight="400" text-anchor="middle" dominant-baseline="central">action-owned domain</text><text x="855.0" y="262" fill="#9fb3c5" font-family="Segoe UI,Arial,sans-serif" font-size="15" font-weight="400" text-anchor="middle" dominant-baseline="central">matching + balance</text><path d="M 705 265 L 740 265" fill="none" stroke="#e07a78" stroke-width="3" stroke-linecap="round" stroke-linejoin="round"/><circle r="5" fill="#f1f6fa" stroke="#43d7e8" stroke-width="2"><animateMotion dur="2.8s" repeatCount="indefinite" begin="-1.09s" path="M 705 265 L 740 265"/></circle><polygon points="740,265 731.2241743810963,269.79425538604204 731.2241743810963,260.20574461395796" fill="#e07a78"/><rect x="1005" y="180" width="250" height="170" rx="12" fill="#102338" stroke="#e2b85b" stroke-width="2"/><rect x="1005" y="180" width="7" height="170" rx="4" fill="#e2b85b"/><text x="1130.0" y="209" fill="#f1f6fa" font-family="Segoe UI,Arial,sans-serif" font-size="17" font-weight="700" text-anchor="middle" dominant-baseline="central">SM MANIFESTATION</text><text x="1130.0" y="238" fill="#9fb3c5" font-family="Segoe UI,Arial,sans-serif" font-size="15" font-weight="400" text-anchor="middle" dominant-baseline="central">existing class</text><text x="1130.0" y="262" fill="#9fb3c5" font-family="Segoe UI,Arial,sans-serif" font-size="15" font-weight="400" text-anchor="middle" dominant-baseline="central">particle readout</text><path d="M 970 265 L 1005 265" fill="none" stroke="#e07a78" stroke-width="3" stroke-linecap="round" stroke-linejoin="round"/><circle r="5" fill="#f1f6fa" stroke="#43d7e8" stroke-width="2"><animateMotion dur="2.8s" repeatCount="indefinite" begin="-1.46s" path="M 970 265 L 1005 265"/></circle><polygon points="1005,265 996.2241743810963,269.79425538604204 996.2241743810963,260.20574461395796" fill="#e07a78"/><rect x="210" y="415" width="860" height="47" rx="12" fill="#03070b" stroke="#e2b85b" stroke-width="1"/><text x="640.0" y="438.5" fill="#e2b85b" font-family="Segoe UI,Arial,sans-serif" font-size="14" font-weight="700" text-anchor="middle" dominant-baseline="central">A BHSM FAMILY OR MODE MAY MANIFEST AS AN SM PARTICLE</text><rect x="90" y="510" width="1100" height="100" rx="10" fill="#03070b" stroke="#e07a78" stroke-width="2"/><text x="640" y="540" fill="#e07a78" font-family="Segoe UI,Arial,sans-serif" font-size="18" font-weight="700" text-anchor="middle" dominant-baseline="central">REJECTED SHORTCUTS</text><text x="640" y="580" fill="#f1f6fa" font-family="Segoe UI,Arial,sans-serif" font-size="17" font-weight="700" text-anchor="middle" dominant-baseline="central">λ₂₄ = 0 ≠ 2π     •     STOP ≠ SPACETIME EDGE     •     DURATION ≠ STABILITY</text><text x="640" y="665" fill="#9fb3c5" font-family="Segoe UI,Arial,sans-serif" font-size="14" font-weight="700" text-anchor="middle" dominant-baseline="central">MISSING: ENCLOSURE OWNER • JUNCTION DATA • FULL-FIELD ATTACHMENT • INTERTWINING TRANSPORT</text></svg>
