<svg xmlns="http://www.w3.org/2000/svg" width="1280" height="720" viewBox="0 0 1280 720"><title>BHSM scientific workflow diagram</title><desc>Deterministic claim-safe repository visual. Animated flow markers indicate computational direction.</desc><rect x="0" y="0" width="1280" height="720" rx="0" fill="#07111d"/><rect x="0" y="0" width="1280" height="92" rx="0" fill="#0b1928"/><path d="M 0 92 L 0 720" fill="none" stroke="#173149" stroke-width="1" stroke-linecap="round" stroke-linejoin="round"/><path d="M 40 92 L 40 720" fill="none" stroke="#173149" stroke-width="1" stroke-linecap="round" stroke-linejoin="round"/><path d="M 80 92 L 80 720" fill="none" stroke="#173149" stroke-width="1" stroke-linecap="round" stroke-linejoin="round"/><path d="M 120 92 L 120 720" fill="none" stroke="#173149" stroke-width="1" stroke-linecap="round" stroke-linejoin="round"/><path d="M 160 92 L 160 720" fill="none" stroke="#173149" stroke-width="1" stroke-linecap="round" stroke-linejoin="round"/><path d="M 200 92 L 200 720" fill="none" stroke="#173149" stroke-width="1" stroke-linecap="round" stroke-linejoin="round"/><path d="M 240 92 L 240 720" fill="none" stroke="#173149" stroke-width="1" stroke-linecap="round" stroke-linejoin="round"/><path d="M 280 92 L 280 720" fill="none" stroke="#173149" stroke-width="1" stroke-linecap="round" stroke-linejoin="round"/><path d="M 320 92 L 320 720" fill="none" stroke="#173149" stroke-width="1" stroke-linecap="round" stroke-linejoin="round"/><path d="M 360 92 L 360 720" fill="none" stroke="#173149" stroke-width="1" stroke-linecap="round" stroke-linejoin="round"/><path d="M 400 92 L 400 720" fill="none" stroke="#173149" stroke-width="1" stroke-linecap="round" stroke-linejoin="round"/><path d="M 440 92 L 440 720" fill="none" stroke="#173149" stroke-width="1" stroke-linecap="round" stroke-linejoin="round"/><path d="M 480 92 L 480 720" fill="none" stroke="#173149" stroke-width="1" stroke-linecap="round" stroke-linejoin="round"/><path d="M 520 92 L 520 720" fill="none" stroke="#173149" stroke-width="1" stroke-linecap="round" stroke-linejoin="round"/><path d="M 560 92 L 560 720" fill="none" stroke="#173149" stroke-width="1" stroke-linecap="round" stroke-linejoin="round"/><path d="M 600 92 L 600 720" fill="none" stroke="#173149" stroke-width="1" stroke-linecap="round" stroke-linejoin="round"/><path d="M 640 92 L 640 720" fill="none" stroke="#173149" stroke-width="1" stroke-linecap="round" stroke-linejoin="round"/><path d="M 680 92 L 680 720" fill="none" stroke="#173149" stroke-width="1" stroke-linecap="round" stroke-linejoin="round"/><path d="M 720 92 L 720 720" fill="none" stroke="#173149" stroke-width="1" stroke-linecap="round" stroke-linejoin="round"/><path d="M 760 92 L 760 720" fill="none" stroke="#173149" stroke-width="1" stroke-linecap="round" stroke-linejoin="round"/><path d="M 800 92 L 800 720" fill="none" stroke="#173149" stroke-width="1" stroke-linecap="round" stroke-linejoin="round"/><path d="M 840 92 L 840 720" fill="none" stroke="#173149" stroke-width="1" stroke-linecap="round" stroke-linejoin="round"/><path d="M 880 92 L 880 720" fill="none" stroke="#173149" stroke-width="1" stroke-linecap="round" stroke-linejoin="round"/><path d="M 920 92 L 920 720" fill="none" stroke="#173149" stroke-width="1" stroke-linecap="round" stroke-linejoin="round"/><path d="M 960 92 L 960 720" fill="none" stroke="#173149" stroke-width="1" stroke-linecap="round" stroke-linejoin="round"/><path d="M 1000 92 L 1000 720" fill="none" stroke="#173149" stroke-width="1" stroke-linecap="round" stroke-linejoin="round"/><path d="M 1040 92 L 1040 720" fill="none" stroke="#173149" stroke-width="1" stroke-linecap="round" stroke-linejoin="round"/><path d="M 1080 92 L 1080 720" fill="none" stroke="#173149" stroke-width="1" stroke-linecap="round" stroke-linejoin="round"/><path d="M 1120 92 L 1120 720" fill="none" stroke="#173149" stroke-width="1" stroke-linecap="round" stroke-linejoin="round"/><path d="M 1160 92 L 1160 720" fill="none" stroke="#173149" stroke-width="1" stroke-linecap="round" stroke-linejoin="round"/><path d="M 1200 92 L 1200 720" fill="none" stroke="#173149" stroke-width="1" stroke-linecap="round" stroke-linejoin="round"/><path d="M 1240 92 L 1240 720" fill="none" stroke="#173149" stroke-width="1" stroke-linecap="round" stroke-linejoin="round"/><path d="M 1280 92 L 1280 720" fill="none" stroke="#173149" stroke-width="1" stroke-linecap="round" stroke-linejoin="round"/><path d="M 0 92 L 1280 92" fill="none" stroke="#173149" stroke-width="1" stroke-linecap="round" stroke-linejoin="round"/><path d="M 0 132 L 1280 132" fill="none" stroke="#173149" stroke-width="1" stroke-linecap="round" stroke-linejoin="round"/><path d="M 0 172 L 1280 172" fill="none" stroke="#173149" stroke-width="1" stroke-linecap="round" stroke-linejoin="round"/><path d="M 0 212 L 1280 212" fill="none" stroke="#173149" stroke-width="1" stroke-linecap="round" stroke-linejoin="round"/><path d="M 0 252 L 1280 252" fill="none" stroke="#173149" stroke-width="1" stroke-linecap="round" stroke-linejoin="round"/><path d="M 0 292 L 1280 292" fill="none" stroke="#173149" stroke-width="1" stroke-linecap="round" stroke-linejoin="round"/><path d="M 0 332 L 1280 332" fill="none" stroke="#173149" stroke-width="1" stroke-linecap="round" stroke-linejoin="round"/><path d="M 0 372 L 1280 372" fill="none" stroke="#173149" stroke-width="1" stroke-linecap="round" stroke-linejoin="round"/><path d="M 0 412 L 1280 412" fill="none" stroke="#173149" stroke-width="1" stroke-linecap="round" stroke-linejoin="round"/><path d="M 0 452 L 1280 452" fill="none" stroke="#173149" stroke-width="1" stroke-linecap="round" stroke-linejoin="round"/><path d="M 0 492 L 1280 492" fill="none" stroke="#173149" stroke-width="1" stroke-linecap="round" stroke-linejoin="round"/><path d="M 0 532 L 1280 532" fill="none" stroke="#173149" stroke-width="1" stroke-linecap="round" stroke-linejoin="round"/><path d="M 0 572 L 1280 572" fill="none" stroke="#173149" stroke-width="1" stroke-linecap="round" stroke-linejoin="round"/><path d="M 0 612 L 1280 612" fill="none" stroke="#173149" stroke-width="1" stroke-linecap="round" stroke-linejoin="round"/><path d="M 0 652 L 1280 652" fill="none" stroke="#173149" stroke-width="1" stroke-linecap="round" stroke-linejoin="round"/><path d="M 0 692 L 1280 692" fill="none" stroke="#173149" stroke-width="1" stroke-linecap="round" stroke-linejoin="round"/><path d="M 30 82 L 1250 82" fill="none" stroke="#1e8fa9" stroke-width="2" stroke-linecap="round" stroke-linejoin="round"/><text x="40" y="42" fill="#f1f6fa" font-family="Segoe UI,Arial,sans-serif" font-size="34" font-weight="700" text-anchor="start" dominant-baseline="central">SPECTRAL FORECAST — BAND VIEW</text><text x="1240" y="44" fill="#9fb3c5" font-family="Segoe UI,Arial,sans-serif" font-size="17" font-weight="400" text-anchor="end" dominant-baseline="central">REPOSITORY-DERIVED STRUCTURE • PROVISIONAL</text><text x="58" y="147" fill="#9fb3c5" font-family="Segoe UI,Arial,sans-serif" font-size="14" font-weight="700" text-anchor="start" dominant-baseline="auto">CLASS</text><text x="1190" y="147" fill="#9fb3c5" font-family="Segoe UI,Arial,sans-serif" font-size="15" font-weight="400" text-anchor="end" dominant-baseline="auto">NORMALIZED SPECTRAL COORDINATE ξ  (NOT MASS)</text><path d="M 150.0 165 L 150.0 555" fill="none" stroke="#173149" stroke-width="1" stroke-linecap="round" stroke-linejoin="round"/><text x="150.0" y="583" fill="#9fb3c5" font-family="Segoe UI,Arial,sans-serif" font-size="13" font-weight="400" text-anchor="middle" dominant-baseline="central">0.0</text><path d="M 358.0 165 L 358.0 555" fill="none" stroke="#173149" stroke-width="1" stroke-linecap="round" stroke-linejoin="round"/><text x="358.0" y="583" fill="#9fb3c5" font-family="Segoe UI,Arial,sans-serif" font-size="13" font-weight="400" text-anchor="middle" dominant-baseline="central">0.2</text><path d="M 566.0 165 L 566.0 555" fill="none" stroke="#173149" stroke-width="1" stroke-linecap="round" stroke-linejoin="round"/><text x="566.0" y="583" fill="#9fb3c5" font-family="Segoe UI,Arial,sans-serif" font-size="13" font-weight="400" text-anchor="middle" dominant-baseline="central">0.4</text><path d="M 774.0 165 L 774.0 555" fill="none" stroke="#173149" stroke-width="1" stroke-linecap="round" stroke-linejoin="round"/><text x="774.0" y="583" fill="#9fb3c5" font-family="Segoe UI,Arial,sans-serif" font-size="13" font-weight="400" text-anchor="middle" dominant-baseline="central">0.6</text><path d="M 982.0 165 L 982.0 555" fill="none" stroke="#173149" stroke-width="1" stroke-linecap="round" stroke-linejoin="round"/><text x="982.0" y="583" fill="#9fb3c5" font-family="Segoe UI,Arial,sans-serif" font-size="13" font-weight="400" text-anchor="middle" dominant-baseline="central">0.8</text><path d="M 1190.0 165 L 1190.0 555" fill="none" stroke="#173149" stroke-width="1" stroke-linecap="round" stroke-linejoin="round"/><text x="1190.0" y="583" fill="#9fb3c5" font-family="Segoe UI,Arial,sans-serif" font-size="13" font-weight="400" text-anchor="middle" dominant-baseline="central">1.0</text><text x="118" y="205" fill="#43d7e8" font-family="Segoe UI,Arial,sans-serif" font-size="15" font-weight="700" text-anchor="end" dominant-baseline="central">MODE A</text><path d="M 150 205 L 1190 205" fill="none" stroke="#132b42" stroke-width="2" stroke-linecap="round" stroke-linejoin="round"/><rect x="191.60000000000002" y="187" width="312.0" height="36" rx="9" fill="#132b42" stroke="#43d7e8" stroke-width="1"/><rect x="254.0" y="194" width="187.20000000000005" height="22" rx="6" fill="#43d7e8" stroke="#f1f6fa" stroke-width="1"/><text x="118" y="285" fill="#e2b85b" font-family="Segoe UI,Arial,sans-serif" font-size="15" font-weight="700" text-anchor="end" dominant-baseline="central">MODE B</text><path d="M 150 285 L 1190 285" fill="none" stroke="#132b42" stroke-width="2" stroke-linecap="round" stroke-linejoin="round"/><rect x="462.00000000000006" y="267" width="259.99999999999994" height="36" rx="9" fill="#132b42" stroke="#e2b85b" stroke-width="1"/><rect x="503.6" y="274" width="176.79999999999995" height="22" rx="6" fill="#e2b85b" stroke="#f1f6fa" stroke-width="1"/><text x="118" y="365" fill="#e07a78" font-family="Segoe UI,Arial,sans-serif" font-size="15" font-weight="700" text-anchor="end" dominant-baseline="central">NULL</text><path d="M 150 365 L 1190 365" fill="none" stroke="#132b42" stroke-width="2" stroke-linecap="round" stroke-linejoin="round"/><rect x="732.4000000000001" y="354" width="135.19999999999982" height="22" rx="6" fill="#e07a78" stroke="#f1f6fa" stroke-width="1"/><path d="M 732 354 L 732.4000000000001 376" fill="none" stroke="#03070b" stroke-width="1" stroke-linecap="round" stroke-linejoin="round"/><path d="M 750 354 L 732.4000000000001 376" fill="none" stroke="#03070b" stroke-width="1" stroke-linecap="round" stroke-linejoin="round"/><path d="M 768 354 L 750 376" fill="none" stroke="#03070b" stroke-width="1" stroke-linecap="round" stroke-linejoin="round"/><path d="M 786 354 L 768 376" fill="none" stroke="#03070b" stroke-width="1" stroke-linecap="round" stroke-linejoin="round"/><path d="M 804 354 L 786 376" fill="none" stroke="#03070b" stroke-width="1" stroke-linecap="round" stroke-linejoin="round"/><path d="M 822 354 L 804 376" fill="none" stroke="#03070b" stroke-width="1" stroke-linecap="round" stroke-linejoin="round"/><path d="M 840 354 L 822 376" fill="none" stroke="#03070b" stroke-width="1" stroke-linecap="round" stroke-linejoin="round"/><path d="M 858 354 L 840 376" fill="none" stroke="#03070b" stroke-width="1" stroke-linecap="round" stroke-linejoin="round"/><text x="118" y="445" fill="#6f8394" font-family="Segoe UI,Arial,sans-serif" font-size="15" font-weight="700" text-anchor="end" dominant-baseline="central">MODE C</text><path d="M 150 445 L 1190 445" fill="none" stroke="#132b42" stroke-width="2" stroke-linecap="round" stroke-linejoin="round"/><rect x="826.0" y="427" width="353.5999999999999" height="36" rx="9" fill="#132b42" stroke="#6f8394" stroke-width="1"/><rect x="909.1999999999999" y="434" width="187.20000000000016" height="22" rx="6" fill="#6f8394" stroke="#f1f6fa" stroke-width="1"/><line x1="150" x2="150" y1="165" y2="555" stroke="#43d7e8" stroke-width="3"><animate attributeName="x1" values="150;1190" dur="3.2s" repeatCount="indefinite"/><animate attributeName="x2" values="150;1190" dur="3.2s" repeatCount="indefinite"/></line><rect x="170" y="615" width="24" height="16" rx="3" fill="#43d7e8" stroke="#f1f6fa" stroke-width="1"/><text x="204" y="624" fill="#9fb3c5" font-family="Segoe UI,Arial,sans-serif" font-size="13" font-weight="700" text-anchor="start" dominant-baseline="central">ADMISSIBLE BAND</text><rect x="430" y="615" width="24" height="16" rx="3" fill="#132b42" stroke="#f1f6fa" stroke-width="1"/><text x="464" y="624" fill="#9fb3c5" font-family="Segoe UI,Arial,sans-serif" font-size="13" font-weight="700" text-anchor="start" dominant-baseline="central">UNCERTAINTY ENVELOPE</text><rect x="760" y="615" width="24" height="16" rx="3" fill="#e07a78" stroke="#f1f6fa" stroke-width="1"/><text x="794" y="624" fill="#9fb3c5" font-family="Segoe UI,Arial,sans-serif" font-size="13" font-weight="700" text-anchor="start" dominant-baseline="central">NULL WINDOW</text><rect x="1010" y="615" width="24" height="16" rx="3" fill="#6f8394" stroke="#f1f6fa" stroke-width="1"/><text x="1044" y="624" fill="#9fb3c5" font-family="Segoe UI,Arial,sans-serif" font-size="13" font-weight="700" text-anchor="start" dominant-baseline="central">UNRESOLVED</text><text x="640" y="682" fill="#f1f6fa" font-family="Segoe UI,Arial,sans-serif" font-size="14" font-weight="700" text-anchor="middle" dominant-baseline="central">BAND WIDTH ENCODES INTERVAL AUTHORITY; THE SCAN LINE SHOWS CLASSIFICATION, NOT DISCOVERY</text></svg>
